<?xml version="1.0" encoding="utf-8" ?><svg xmlns="http://www.w3.org/2000/svg" xmlns:xlink="http://www.w3.org/1999/xlink" width="1024" height="1024" viewBox="0 0 1024 1024"><path fill="#444C4D" d="M368.469 393.021C368.596 413.465 370.378 436.245 371.617 456.803C371.566 459.32 371.495 461.837 371.404 464.353C370.309 466.061 369.072 468.135 367.795 469.668C355.498 484.122 339.123 503.525 328.007 518.751C334.355 538.925 340.88 559.042 347.581 579.101C350.232 587.129 356.439 607.056 359.789 614.127L396.447 623.313C403.301 625.011 415.01 627.635 421.249 630.034C430.986 615.422 440.944 600.959 451.119 586.649C456.908 578.371 463.431 568.504 469.413 560.539C472.233 563.748 475.129 566.889 478.099 569.96C462.958 592.769 446.312 615.083 431.047 637.927C437.764 649.772 445.346 661.626 452.407 673.297C454.475 676.715 461.908 689.116 464.191 691.306C461.65 693.847 454.725 698.272 451.573 700.635C441.603 708.109 429.642 715.561 420.154 723.463C414.698 720.806 409.328 717.978 404.05 714.983C293.121 651.338 254.198 516.871 314.435 404.505C316.338 400.954 318.272 397.486 320.285 393.996C334.949 394.557 353.789 393.887 368.469 393.021ZM340.372 640.934C340.633 639.389 340.915 637.322 341.366 635.883C343.286 629.223 345.531 621.915 346.833 615.141C344.737 608.445 342.565 601.663 340.278 595.031C332.236 571.718 325.624 547.668 316.985 524.63C315.96 521.899 301.998 510.537 298.933 507.976C298.431 515.492 298.95 523.2 299.476 530.709C302.231 570.106 315.296 610.027 340.372 640.934Z"/><path fill="#2DE66A" d="M741.11 289.526L741.222 290.171C716.694 323.361 690.437 356.9 665.303 389.682L583.104 497.506L538.94 554.693C531.126 564.857 522.404 575.874 515.035 586.293C509.897 581.23 499.604 568.544 494.398 562.579L451.93 514.348C444.858 506.319 437.625 498.42 430.71 490.257C440.939 479.996 453.243 468.538 464.067 458.872C467.11 461.584 469.903 464.728 472.828 467.578C486.981 481.363 500.254 496.601 514.525 510.208C523.285 502.36 533.632 491.698 542.206 483.32L591.397 435.334L741.11 289.526Z"/><path fill="#444C4D" d="M466.336 291.577C501.649 285.07 528.537 284.146 563.865 291.692L563.31 292.457C565.014 300.309 576.461 327.654 580.083 336.589C560.359 344.631 540.924 351.904 521.293 360.264L521.346 388.706C521.349 391.396 521.489 400.624 521.164 402.914L521.433 432.592L507.581 432.54C507.3 408.816 507.619 384.061 507.847 360.29C505.836 358.277 454.536 338.712 448.988 336.604C455.043 323.273 461 305.691 466.336 291.577Z"/><path fill="#2DE66A" d="M507.847 360.29C510.243 361.457 512.658 362.586 515.089 363.678L521.035 360.736C521.094 369.913 521.098 379.09 521.049 388.267C521.041 391.671 520.832 399.75 521.164 402.914L521.433 432.592L507.581 432.54C507.3 408.816 507.619 384.061 507.847 360.29Z"/><path fill="#444C4D" d="M671.09 614.019L680.221 647.57C681.869 653.616 683.817 661.569 685.814 667.364C662.742 691.863 640.488 709.447 609.787 723.855C600.013 716.135 588.267 708.925 578.179 701.457C573.817 698.227 568.858 695.129 564.812 691.513C566.389 689.507 575.056 674.805 576.829 671.764C582.986 661.208 593.118 647.511 598.35 637.111C600.916 632.334 602.799 631.124 607.633 629.168C610.057 629.22 624.592 625.667 627.803 624.824C641.97 621.105 657.062 617.987 671.09 614.019Z"/><path fill="#2DE66A" d="M464.191 691.306C469.764 690.368 559.975 690.496 564.812 691.513C568.858 695.129 573.817 698.227 578.179 701.457C588.267 708.925 600.013 716.135 609.787 723.855C600.437 728.737 588.229 733.25 578.073 736.335C537.036 748.691 493.253 748.584 452.277 736.026C442.518 733.113 429.166 728.263 420.154 723.463C429.642 715.561 441.603 708.109 451.573 700.635C454.725 698.272 461.65 693.847 464.191 691.306ZM466.281 704.536C459.008 709.208 451.872 714.549 444.924 719.717C456.364 723.655 471.491 728.132 483.555 729.706C514.972 735.011 554.888 731.795 584.903 720.494C577.624 715.221 569.488 709.052 562.039 704.166C557.517 704.189 552.847 704.151 548.339 704.264C521.059 704.456 493.496 704.088 466.281 704.536Z"/><path fill="#444C4D" d="M658.058 457.675C658.246 449.345 657.398 436.303 659.643 428.601C661.442 422.428 690.773 385.957 697.451 376.622C723.138 411.81 734.196 443.651 742.02 485.771C733.3 493.307 724.493 500.741 715.599 508.072C712.674 510.502 704.7 517.391 701.983 519.114C700.842 517.299 695.289 509.782 693.954 508.458C689.702 504.241 663.693 469.324 661.439 468.894C660.658 467.489 659.02 465.146 658.09 463.719L658.058 457.675Z"/><path fill="#2DE66A" d="M742.02 485.771C751.385 539.073 734.421 600.925 703.506 644.976C698.03 652.762 692.124 660.236 685.814 667.364C683.817 661.569 681.869 653.616 680.221 647.57L671.09 614.019C671.946 609.479 675.093 600.802 676.658 596.21L687.477 564.362C690.648 554.467 693.764 544.556 696.825 534.626C698.271 530.018 700.14 523.422 701.983 519.114C704.7 517.391 712.674 510.502 715.599 508.072C724.493 500.741 733.3 493.307 742.02 485.771ZM683.685 615.263C685.536 622.095 687.366 629.208 689.371 635.972C689.816 637.522 690.286 639.082 690.671 640.646C718.415 603.313 732.755 557.712 731.372 511.219L730.972 510.559C728.481 512.25 714.011 523.018 713.318 524.829C704.187 548.695 697.697 574.028 689.04 598.167C687.059 603.69 685.205 609.666 683.685 615.263Z"/><path fill="#2DE66A" d="M320.285 393.996C343.636 353.909 382.445 322.339 425.148 304.729C440.493 298.401 450.819 295.936 466.336 291.577C461 305.691 455.043 323.273 448.988 336.604C425.516 353.009 401.822 369.015 378.757 386.009C375.416 388.471 372.025 390.88 368.469 393.021C353.789 393.887 334.949 394.557 320.285 393.996ZM345.212 381.506C348.728 381.382 363.24 381.22 364.878 380.192C375.159 373.739 388.324 363.612 398.134 356.682C406.022 351.128 413.962 345.648 421.951 340.242C437.41 329.858 441.059 330.145 445.894 311.053L445.497 310.591C408.192 321.881 368.609 350.213 344.813 380.963L345.212 381.506Z"/><path fill="#2DE66A" d="M580.083 336.589C576.461 327.654 565.014 300.309 563.31 292.457L563.865 291.692C592.794 297.097 625.649 312.818 649.537 329.86C653.529 332.708 659.634 336.934 663.11 340.237C660.243 343.498 657.33 346.719 654.372 349.898C635.443 334.759 607.033 316.421 583.264 310.277C584.542 313.718 589.053 326.947 590.878 328.36C605.986 340.056 625.083 351.412 640.192 362.976C638.031 365.671 633.81 369.87 631.111 372.015C615.738 361.499 600.755 350.408 585.295 340.014C583.622 338.889 581.849 337.507 580.083 336.589Z"/><path fill="#2DE66A" d="M558.987 558.398C564.884 565.514 575.527 582.18 581.192 590.334L598.142 614.818C601 618.988 605.268 624.886 607.633 629.168C602.799 631.124 600.916 632.334 598.35 637.111L550.515 568.562C552.562 565.315 556.309 561.159 558.987 558.398Z"/><path fill="#2DE66A" d="M371.617 456.803C388.239 462.639 405.064 468.178 421.627 474.105L411.805 484.006L385.2 475.062C380.191 473.39 372.773 470.691 367.795 469.668C369.072 468.135 370.309 466.061 371.404 464.353C371.495 461.837 371.566 459.32 371.617 456.803Z"/><path fill="#2DE66A" d="M615.218 485.356C630.398 462.18 630.744 465.45 658.058 457.675L658.09 463.719C659.02 465.146 660.658 467.489 661.439 468.894C650.716 473.908 627.456 481.177 615.218 485.356Z"/></svg>